<?xml version="1.0" standalone="no"?>
<!DOCTYPE svg PUBLIC "-//W3C//DTD SVG 20010904//EN"
 "http://www.w3.org/TR/2001/REC-SVG-20010904/DTD/svg10.dtd">
<svg version="1.0" xmlns="http://www.w3.org/2000/svg"
 width="219.000000pt" height="159.000000pt" viewBox="0 0 219.000000 159.000000"
 preserveAspectRatio="xMidYMid meet">
<metadata>
Created by potrace 1.10, written by Peter Selinger 2001-2011
</metadata>
<g transform="translate(0.000000,159.000000) scale(0.100000,-0.100000)"
fill="#b13516" stroke="none">
<path d="M706 1377 l-379 -192 0 -115 c0 -66 4 -113 9 -110 5 3 10 52 11 109
l1 103 369 188 369 187 372 -186 372 -186 0 -112 c0 -69 4 -113 10 -113 6 0
10 46 10 118 l0 117 -378 193 c-209 105 -381 192 -383 192 -2 -1 -175 -87
-383 -193z"/>
<path d="M743 1302 l-333 -167 0 -92 c0 -118 18 -123 22 -7 l3 86 326 167 327
166 328 -167 329 -167 3 -86 c2 -48 7 -85 13 -85 6 0 9 36 7 93 l-3 92 -330
167 c-181 92 -337 167 -345 167 -8 0 -165 -75 -347 -167z"/>
<path d="M910 1215 l0 -95 178 2 177 3 3 79 c4 112 1 116 -54 71 l-46 -38 -38
38 -39 38 -41 -37 -41 -37 -28 20 c-15 11 -34 27 -41 36 -24 29 -30 14 -30
-80z m106 5 c6 0 23 14 39 30 16 17 34 30 40 30 6 0 24 -13 40 -30 16 -16 33
-30 39 -30 5 0 25 14 43 32 l33 32 0 -72 0 -72 -155 0 -155 0 0 72 0 72 33
-32 c18 -18 38 -32 43 -32z"/>
<path d="M665 1085 c-65 -35 -121 -68 -123 -74 -2 -7 55 17 127 53 72 37 131
71 131 76 0 15 -4 13 -135 -55z"/>
<path d="M1376 1142 c-2 -4 54 -37 125 -74 71 -36 131 -62 134 -58 3 5 -53 39
-124 75 -72 35 -132 61 -135 57z"/>
<path d="M34 875 c-30 -30 -24 -46 32 -84 45 -31 52 -46 26 -60 -16 -8 -25 -6
-45 9 -32 26 -39 25 -35 -2 3 -20 10 -23 50 -26 41 -3 49 0 63 22 22 33 8 59
-45 86 -22 11 -40 27 -40 35 0 22 39 29 59 11 22 -20 31 -20 31 -2 0 17 -5 21
-43 30 -21 5 -33 1 -53 -19z"/>
<path d="M867 884 c-51 -28 -63 -104 -22 -148 19 -20 33 -26 68 -26 48 0 62
10 69 53 5 24 2 27 -22 27 -24 0 -26 -3 -22 -30 4 -28 2 -30 -27 -30 -61 0
-80 101 -25 137 21 14 28 14 52 2 15 -7 30 -15 35 -17 4 -2 7 3 7 12 0 18 -6
22 -50 29 -22 4 -45 1 -63 -9z"/>
<path d="M1272 884 c-37 -26 -26 -64 26 -92 45 -25 53 -45 23 -61 -14 -8 -25
-6 -45 10 -30 24 -41 20 -31 -10 9 -29 84 -30 109 -2 25 27 17 51 -24 78 -60
39 -64 43 -47 60 15 16 57 10 57 -8 0 -5 5 -9 10 -9 6 0 10 9 10 20 0 11 -6
20 -12 20 -7 0 -22 3 -33 6 -11 2 -30 -3 -43 -12z"/>
<path d="M1647 889 c-21 -12 -47 -61 -47 -89 0 -56 49 -99 105 -91 34 4 65 48
65 91 0 52 -8 68 -41 85 -33 17 -57 19 -82 4z m77 -31 c23 -32 20 -94 -4 -118
-11 -11 -24 -20 -30 -20 -26 0 -50 41 -50 84 0 70 51 102 84 54z"/>
<path d="M188 878 c16 -16 16 -140 0 -156 -9 -9 -4 -12 24 -12 36 0 36 0 25
29 -16 42 -4 61 39 61 l37 0 -5 -45 -6 -45 35 0 c31 0 33 1 19 16 -18 18 -22
98 -6 138 9 24 7 26 -19 26 -26 0 -28 -3 -27 -37 1 -37 0 -38 -34 -38 -29 0
-36 4 -38 23 -2 13 2 30 8 38 11 12 6 14 -26 14 -30 0 -35 -3 -26 -12z"/>
<path d="M418 878 c16 -16 16 -140 0 -157 -11 -10 1 -11 57 -9 60 3 70 6 74
23 3 16 1 17 -12 6 -9 -7 -28 -11 -44 -9 -23 2 -29 9 -31 32 -3 27 -2 29 27
23 28 -6 31 -4 31 18 0 22 -3 24 -30 19 -25 -6 -30 -3 -30 14 0 18 22 46 31
38 2 -2 16 -6 31 -10 22 -5 26 -3 22 9 -5 11 -22 15 -72 15 -51 0 -63 -3 -54
-12z"/>
<path d="M606 879 c11 -18 5 -141 -8 -156 -8 -10 -4 -13 22 -13 25 0 31 3 26
16 -9 23 -20 124 -13 124 3 0 28 -31 56 -70 28 -38 56 -70 61 -70 6 0 10 33
10 78 0 47 5 83 12 90 9 9 5 12 -21 12 -28 0 -31 -2 -22 -14 7 -8 11 -35 9
-62 l-3 -47 -47 62 c-31 40 -55 61 -69 61 -12 0 -18 -4 -13 -11z"/>
<path d="M1081 827 c-12 -35 -28 -73 -36 -83 -21 -27 -18 -34 11 -34 20 0 24
4 20 18 -9 27 8 44 40 40 24 -2 29 -7 29 -30 -1 -25 3 -28 33 -28 29 0 32 2
23 14 -7 8 -25 47 -40 88 -37 95 -53 98 -80 15z m48 -24 c1 -7 -8 -13 -19 -13
-23 0 -23 0 -9 37 10 26 12 27 19 8 5 -11 9 -26 9 -32z"/>
<path d="M1410 868 c0 -17 3 -19 12 -10 7 7 20 12 30 12 16 0 18 -9 18 -68 0
-40 -5 -73 -12 -80 -9 -9 -4 -12 25 -12 34 0 37 2 27 19 -11 22 -14 134 -3
144 3 4 17 0 30 -8 21 -14 23 -14 23 5 0 18 -6 20 -75 20 -71 0 -75 -1 -75
-22z"/>
<path d="M1838 815 c2 -49 -1 -81 -8 -91 -11 -12 -7 -14 24 -14 34 0 35 1 26
26 -24 63 3 74 41 17 15 -24 33 -39 49 -41 l25 -4 -21 24 c-37 40 -46 64 -29
78 18 15 20 51 3 68 -7 7 -35 12 -62 12 l-51 0 3 -75z m85 44 c15 -24 1 -49
-28 -49 -21 0 -25 5 -25 28 0 16 3 32 7 36 11 10 35 3 46 -15z"/>
<path d="M2040 871 c13 -25 13 -128 0 -136 -27 -17 -5 -26 57 -23 54 2 68 6
71 20 3 15 -1 15 -26 6 -39 -15 -62 -5 -62 28 0 24 3 26 31 20 27 -5 30 -3 27
17 -2 18 -8 21 -30 19 -24 -3 -28 0 -28 22 0 23 6 28 30 28 3 0 15 -3 28 -7
16 -5 22 -2 22 9 0 13 -13 16 -65 16 -62 0 -65 -1 -55 -19z"/>
<path d="M92 483 l2 -168 3 158 c2 90 8 157 13 157 5 0 11 -62 13 -142 l3
-143 2 143 c3 179 20 190 25 15 l3 -128 2 128 c3 159 20 170 25 15 l3 -113 2
113 c1 64 6 112 12 112 5 0 11 -44 13 -97 l3 -98 2 98 c1 54 6 97 12 97 5 0
11 -37 13 -82 l3 -83 2 83 c2 99 20 109 25 15 l3 -68 2 68 c2 82 20 89 25 10
l3 -58 2 58 c1 31 7 57 12 57 6 0 10 -43 10 -107 l0 -108 380 -193 379 -193
383 193 383 193 -3 108 c-2 68 0 107 7 107 5 0 12 -24 14 -52 l3 -53 2 53 c3
75 20 64 25 -15 l3 -68 2 68 c3 95 21 84 25 -15 l3 -83 2 83 c1 45 6 82 12 82
5 0 11 -44 13 -97 l3 -98 2 98 c1 54 6 97 12 97 5 0 11 -49 13 -112 l3 -113 2
113 c3 155 21 144 25 -15 l3 -128 2 128 c3 175 21 165 25 -15 l3 -143 2 143
c3 196 21 185 25 -15 l3 -158 2 168 2 168 -127 -3 -128 -3 -3 -110 -3 -110
-368 -186 -368 -186 -371 186 -371 186 -3 110 -3 110 -127 3 -128 3 2 -168z"/>
<path d="M410 557 l0 -92 340 -170 340 -170 338 170 337 170 3 93 c2 56 -1 92
-7 92 -6 0 -11 -37 -13 -86 l-3 -85 -327 -167 -327 -167 -330 165 -331 165 0
88 c0 51 -4 87 -10 87 -6 0 -10 -38 -10 -93z"/>
<path d="M935 590 c4 -6 67 -10 156 -10 93 0 149 4 149 10 0 6 -59 10 -156 10
-101 0 -153 -3 -149 -10z"/>
<path d="M807 469 c-5 -17 -9 -20 -19 -12 -7 6 -23 14 -35 17 -19 6 -23 3 -23
-12 0 -11 9 -30 19 -43 18 -22 18 -25 3 -42 -14 -16 -14 -19 -2 -27 23 -15 63
-12 88 6 31 22 30 83 -2 113 l-23 22 -6 -22z m43 -61 c0 -10 -4 -18 -9 -18
-11 0 -21 25 -21 53 1 22 1 22 15 3 8 -11 15 -28 15 -38z m-62 30 c7 -7 12
-18 12 -25 0 -18 -35 0 -44 22 -7 18 15 20 32 3z m42 -68 c0 -5 -14 -10 -31
-10 -17 0 -28 4 -24 10 3 6 17 10 31 10 13 0 24 -4 24 -10z"/>
<path d="M1325 450 c-20 -38 -19 -52 6 -84 23 -29 63 -35 94 -12 18 13 18 14
-1 26 -20 13 -20 13 3 36 13 13 23 32 23 44 0 24 -1 24 -45 6 -31 -13 -35 -13
-35 0 0 25 -29 15 -45 -16z m21 -48 c-15 -15 -16 -15 -16 2 0 9 6 27 12 39
l13 22 3 -24 c2 -13 -3 -31 -12 -39z m69 28 c-10 -11 -25 -20 -34 -20 -11 1
-8 8 13 26 32 29 48 24 21 -6z m-10 -60 c4 -6 -6 -10 -24 -10 -16 0 -33 5 -36
10 -4 6 6 10 24 10 16 0 33 -4 36 -10z"/>
<path d="M882 408 c3 -39 0 -45 -27 -59 -43 -24 -39 -43 11 -47 35 -3 45 1 63
24 28 35 27 56 -5 93 -35 42 -46 39 -42 -11z m38 -7 c12 -24 13 -51 2 -51 -9
0 -32 44 -32 60 0 17 19 11 30 -9z m0 -67 c0 -12 -54 -24 -63 -15 -7 7 -2 13
14 19 22 9 49 6 49 -4z"/>
<path d="M1269 437 c-21 -16 -39 -51 -39 -76 0 -45 62 -75 114 -55 24 9 20 19
-16 38 -31 17 -33 21 -29 62 3 46 -3 52 -30 31z m16 -39 c-4 -13 -13 -30 -21
-38 -12 -12 -14 -11 -14 11 0 25 16 49 33 49 4 0 5 -10 2 -22z m41 -69 c3 -5
-8 -9 -25 -9 -31 0 -50 15 -29 23 17 5 47 -3 54 -14z"/>
<path d="M960 399 c0 -17 5 -39 10 -50 7 -11 7 -19 1 -19 -12 0 -71 -49 -71
-60 0 -16 62 -20 95 -6 25 11 36 23 43 48 11 44 5 63 -30 93 -39 33 -48 32
-48 -6z m55 -30 c19 -36 19 -50 0 -42 -16 5 -45 53 -45 72 0 19 31 -1 45 -30z
m-5 -74 c-19 -19 -80 -32 -80 -17 0 16 31 31 65 32 26 0 28 -2 15 -15z"/>
<path d="M1167 406 c-52 -48 -43 -116 18 -142 39 -16 85 -10 85 12 0 7 -15 24
-34 36 -26 18 -31 27 -25 43 13 33 10 75 -5 75 -7 0 -25 -11 -39 -24z m33 -24
c0 -10 -10 -29 -22 -42 -20 -22 -23 -22 -26 -7 -4 20 23 67 38 67 6 0 10 -8
10 -18z m36 -93 c16 -18 16 -19 -7 -19 -32 0 -76 30 -59 40 17 11 46 1 66 -21z"/>
<path d="M1065 324 c-19 -20 -16 -43 8 -58 20 -13 50 2 55 26 3 16 -23 48 -38
48 -5 0 -16 -7 -25 -16z m43 -27 c2 -12 -3 -17 -17 -17 -12 0 -21 6 -21 13 0
31 32 34 38 4z"/>
<path d="M1063 224 c-3 -8 2 -23 11 -32 15 -15 17 -15 32 0 9 9 14 24 11 32
-8 21 -46 21 -54 0z"/>
</g>
</svg>
